<svg xmlns="http://www.w3.org/2000/svg" width="178.7" height="320" viewBox="0 0 178.7 320"><defs><style>.a{opacity:0.15;}.b{fill:#f23643;}</style></defs><title>four</title><g class="a"><path class="b" d="M18.35,192.46a1.34,1.34,0,0,0,.92.23,123.15,123.15,0,0,0,19.84-31,198.81,198.81,0,0,0,11.93-36,387.64,387.64,0,0,0,7.11-41.18q2.64-21.9,5.39-46.45A24.05,24.05,0,0,1,66,29.82a22.73,22.73,0,0,1,4.93-6.65,17.16,17.16,0,0,1,6.88-3.9A13.84,13.84,0,0,1,86,19.5a10.57,10.57,0,0,1,6.42,4.24,19.7,19.7,0,0,1,2.87,7.11,34.41,34.41,0,0,1,.57,8.61q-.22,4.59-.68,8.71a249.66,249.66,0,0,1-6.88,37.51A272.56,272.56,0,0,1,75,124.33a269,269,0,0,1-19.73,37.5,211.3,211.3,0,0,1-26.15,33.61q10.1,2.3,21.57,4.24t23.16,3.45q11.7,1.49,23.52,2.4T120,206.68q-1.83-20.18-2.75-39.68t-.92-36.94q0-7.34.12-18t.91-22.94q.81-12.27,2.64-25A184.07,184.07,0,0,1,125,40a95.86,95.86,0,0,1,8.14-20.3,36.75,36.75,0,0,1,12-13.54,42.69,42.69,0,0,1,8.26-4.36A24.63,24.63,0,0,1,162.64,0a8.06,8.06,0,0,1,4.82,1.49,5.42,5.42,0,0,1,2.06,4.7,18.41,18.41,0,0,1-1.38,6.89,199.32,199.32,0,0,0-10.09,29q-4.12,15.49-6.88,31.54t-4.36,31.55q-1.6,15.48-2.52,28.67T143.14,157q-.22,10-.23,15c0,4.29,0,8.07.12,11.36s.11,6.27.11,8.94,0,5.17.12,7.46.11,4.59.11,6.88c3.36-.3,6.38-.65,9.06-1s5.24-.8,7.69-1.26,5-1,7.57-1.61,5.5-1.38,8.71-2.29l2.3,4.59c-1.84.91-4.1,1.95-6.77,3.09s-5.59,2.34-8.72,3.56-6.39,2.41-9.75,3.55-6.73,2.18-10.09,3.1q0,25.69.8,50.47t3.33,49.77L143.37,320a265.16,265.16,0,0,1-13.65-45.42q-5.16-24.54-8.14-50.69a238.33,238.33,0,0,1-31.89,4.7q-16.05,1.26-31.88,1.26H48.06c-3.9,0-8-.19-12.27-.57a123.05,123.05,0,0,1-12.85-1.84,44.92,44.92,0,0,1-11.47-3.78,24.3,24.3,0,0,1-8.26-6.54,15.48,15.48,0,0,1-3.21-10A18.51,18.51,0,0,1,.92,202a17,17,0,0,1,3-5.74,12.2,12.2,0,0,1,5.62-3.9C11.89,191.51,14.83,191.54,18.35,192.46Z"/></g></svg>