<svg xmlns="http://www.w3.org/2000/svg" width="135.1" height="320" viewBox="0 0 135.1 320"><defs><style>.a{opacity:0.15;}.b{fill:#f23643;}</style></defs><title>one</title><g class="a"><path class="b" d="M135.1,286.64a128.07,128.07,0,0,1-22.91,14.45A177.71,177.71,0,0,1,86,311.54a187.8,187.8,0,0,1-27.6,6.35A181.51,181.51,0,0,1,31.25,320,56.32,56.32,0,0,1,21,319.06a26.32,26.32,0,0,1-8.93-3.29,18.94,18.94,0,0,1-6.34-6.34,18.88,18.88,0,0,1-2.47-10.11,20.13,20.13,0,0,1,.7-5.05,22.07,22.07,0,0,1,2-5,11.67,11.67,0,0,1,3.41-3.87,8.18,8.18,0,0,1,4.93-1.53,7.37,7.37,0,0,1,3.06.47,111.08,111.08,0,0,0,21.61,4q11,.95,22.09,1.41a465.48,465.48,0,0,1-8-66.25q-1.65-33.6-1.65-66.26,0-18.8.47-37.24T53.8,83.17Q49.35,87.64,43,93.27t-13.39,11A142.43,142.43,0,0,1,15.39,114a55.74,55.74,0,0,1-13,5.87L0,116.3a107.23,107.23,0,0,0,15.39-18Q23,87.4,30,75.07T42.76,50.4q5.87-12.34,10.1-22.21A75,75,0,0,0,57.09,16.8,54.47,54.47,0,0,1,61.56,5.64a9.5,9.5,0,0,1,3.29-4.47Q66.72,0,70.72,0a24.31,24.31,0,0,1,7.17,1.41,42.67,42.67,0,0,1,8.34,3.76A29.93,29.93,0,0,1,93,10.57a9.56,9.56,0,0,1,2.82,6.58V18.8Q86.94,51.21,81.18,84.11t-8.7,66.49q-2.94,33.6-3.76,68.25t.12,70.84h4.7q7,0,14.8-.35c5.17-.24,10.34-.62,15.51-1.17s10.25-1.26,15.27-2.12a134.79,134.79,0,0,0,14.1-3.17Z"/></g></svg>