<svg xmlns="http://www.w3.org/2000/svg" width="163.69" height="320" viewBox="0 0 163.69 320"><defs><style>.a{opacity:0.15;}.b{fill:#f23643;}</style></defs><title>three</title><g class="a"><path class="b" d="M157.46,254.43q0,15.93-6.7,28.17a66.61,66.61,0,0,1-17.2,20.55,75,75,0,0,1-23.78,12.58A86.11,86.11,0,0,1,83.35,320a105,105,0,0,1-21.47-2.31,65,65,0,0,1-20.32-7.85,46.46,46.46,0,0,1-15.24-14.78q-6-9.22-6-23.08A45,45,0,0,1,24.13,253,48.31,48.31,0,0,1,34.29,238.5,58.81,58.81,0,0,1,49.06,228a76.33,76.33,0,0,1,17.66-6.35l1.39,3.7a51.61,51.61,0,0,0-18.24,18.24,50,50,0,0,0-7.39,26.78,49.07,49.07,0,0,0,3,17.43,41.68,41.68,0,0,0,8.32,13.74,37,37,0,0,0,12.81,9,41.18,41.18,0,0,0,16.51,3.24q11.77,0,20.31-4.85a45.19,45.19,0,0,0,14.2-12.47A52.72,52.72,0,0,0,126,279.71a64.15,64.15,0,0,0,2.65-17.89q0-17.32-4.85-30.36a62,62,0,0,0-13.62-22.05,61.91,61.91,0,0,0-21.24-14.09A102.18,102.18,0,0,0,61,188.63v-9.47a104.6,104.6,0,0,0,26.79-7.62,72.68,72.68,0,0,0,22.27-15,69.91,69.91,0,0,0,15.24-22.86q5.66-13.4,5.66-30.71A91.38,91.38,0,0,0,126.41,75a89.29,89.29,0,0,0-12.82-25.52,69.76,69.76,0,0,0-20.2-18.7,50.09,50.09,0,0,0-26.67-7.27,49.19,49.19,0,0,0-18.58,3.58,50.3,50.3,0,0,0-15.7,9.93A48.49,48.49,0,0,0,21.59,52a42.53,42.53,0,0,0-4,18.47,51.43,51.43,0,0,0,1.73,13.85,57.34,57.34,0,0,0,4.85,12,78.51,78.51,0,0,0,7.27,11.08q4.16,5.31,8.77,11.08a38.91,38.91,0,0,1,4.39,7,20.2,20.2,0,0,1,1.85,8.89,19.87,19.87,0,0,1-4.62,12.7,15.13,15.13,0,0,1-12.47,5.77,18.57,18.57,0,0,1-14.66-6.46,49.33,49.33,0,0,1-9-15.47A80.5,80.5,0,0,1,1.15,112,149.47,149.47,0,0,1,0,95.12,110,110,0,0,1,5.66,60.26,96.94,96.94,0,0,1,22.05,29.78,83.41,83.41,0,0,1,48.14,8.2Q63.49,0,82.66,0a69,69,0,0,1,32.09,7.62,85.59,85.59,0,0,1,25.62,20.09,95.87,95.87,0,0,1,17.09,28.51,90.64,90.64,0,0,1,6.23,33.13,85.05,85.05,0,0,1-5.54,30.82,95.8,95.8,0,0,1-15.47,26.55,107.45,107.45,0,0,1-23.78,21.36,132.3,132.3,0,0,1-30.7,15,123.42,123.42,0,0,1,25.16,9,91.63,91.63,0,0,1,22.28,15A72.66,72.66,0,0,1,151.46,228,57.86,57.86,0,0,1,157.46,254.43Z"/></g></svg>