<svg xmlns="http://www.w3.org/2000/svg" width="172" height="320" viewBox="0 0 172 320"><defs><style>.a{opacity:0.15;}.b{fill:#f23643;}</style></defs><title>two</title><g class="a"><path class="b" d="M170.12,320a196.55,196.55,0,0,0-38.71-6.47q-19.65-1.29-38.94-1.29-15.52,0-31.65.82a180.82,180.82,0,0,0-31.41,4.35H26.12a12.4,12.4,0,0,1-10.35-4.82A17.24,17.24,0,0,1,12,301.65q0-6.36,3.18-10.24a21.29,21.29,0,0,1,7.88-6,36.05,36.05,0,0,1,10.47-2.82,88.55,88.55,0,0,1,10.7-.71h2.36a189.74,189.74,0,0,0,37.53-27.53,190.28,190.28,0,0,0,30-36A178.4,178.4,0,0,0,134,176.23a148.53,148.53,0,0,0,7.18-45.64A145.55,145.55,0,0,0,139.29,108a162.74,162.74,0,0,0-5.64-23.88A129.44,129.44,0,0,0,124,61.41a84.66,84.66,0,0,0-14.12-19.17,65.47,65.47,0,0,0-18.59-13.3A53.43,53.43,0,0,0,68,24a51.77,51.77,0,0,0-18.94,3.53,50.69,50.69,0,0,0-16,9.88A48.45,48.45,0,0,0,22,52.35a42.14,42.14,0,0,0-4.12,18.47,52.83,52.83,0,0,0,1.77,14,55,55,0,0,0,4.94,12.24,85.11,85.11,0,0,0,7.29,11.06q4.13,5.3,9.06,10.47a47.3,47.3,0,0,1,4.59,6.23,14.71,14.71,0,0,1,1.77,7.65,24.49,24.49,0,0,1-1.18,7.29,27.1,27.1,0,0,1-3.3,7A18.9,18.9,0,0,1,37.53,152a12.67,12.67,0,0,1-7.18,2.12,19.3,19.3,0,0,1-15.06-6.59A48.65,48.65,0,0,1,6,131.65a89,89,0,0,1-4.71-19.42A137.81,137.81,0,0,1,0,95.29,116.2,116.2,0,0,1,3.06,68.47a94.47,94.47,0,0,1,9.41-24.35A90.12,90.12,0,0,1,28.35,23.41,88.26,88.26,0,0,1,50.59,7.76,73.1,73.1,0,0,1,66.71,2,77.13,77.13,0,0,1,84.24,0a72.82,72.82,0,0,1,23.17,3.65,80.41,80.41,0,0,1,37.18,25.64,98.07,98.07,0,0,1,12.59,19.89,97.09,97.09,0,0,1,7.88,25.17,157.4,157.4,0,0,1,2.23,26.36A193.48,193.48,0,0,1,159.88,154a226.65,226.65,0,0,1-20.7,49.53,236.41,236.41,0,0,1-31.77,43.65,249.52,249.52,0,0,1-40.59,35.64,271.15,271.15,0,0,1,27.77,3.89,276.2,276.2,0,0,1,27.76,6.82,219,219,0,0,1,26.24,9.76A171.07,171.07,0,0,1,172,316Z"/></g></svg>