<svg xmlns="http://www.w3.org/2000/svg" width="98.78mm" height="22.91mm" viewBox="0 0 280 64.93"><defs><style>.a{fill:#fff;}</style></defs><title>partner</title><path class="a" d="M32.51,0A32.45,32.45,0,1,0,64.9,32.51,32.45,32.45,0,0,0,32.51,0ZM32.4,59.93A27.48,27.48,0,1,1,59.93,32.5,27.48,27.48,0,0,1,32.4,59.93Zm23-29.18a.73.73,0,0,1,.76.77v1.05c0,7.39-5.33,12.9-12.66,12.88s-12.41-5.54-12.39-13,5.26-13,12.51-13A12.55,12.55,0,0,1,53,23.35a.75.75,0,0,1,0,1l-2.1,2.3a.66.66,0,0,1-1,0A8.17,8.17,0,0,0,43.54,24c-4.47,0-7.69,3.54-7.7,8.5S39,41,43.5,41c4,0,6.78-2.08,7.76-5.77l-7.61,0a.71.71,0,0,1-.76-.7v-3a.73.73,0,0,1,.77-.76l11.73,0M12.26,37a.66.66,0,0,1,1.05.07,8.61,8.61,0,0,0,7.32,3.92c2.79,0,4.46-1.11,4.47-2.85,0-1.54-1-2.45-3.7-3.22l-4.18-1.19c-4-1.13-6.34-3.78-6.34-7,0-4.26,3.85-7.25,9.23-7.24a11.09,11.09,0,0,1,8.64,3.64.76.76,0,0,1,0,1.05l-2.16,2.23a.6.6,0,0,1-1.05,0A7.21,7.21,0,0,0,20.1,23.7c-2.86,0-4.68,1.18-4.68,2.92,0,1.4,1.11,2.38,3.9,3.15L23.78,31c4,1.12,6,3.36,6,7.06,0,4.39-3.85,7.32-9.43,7.31-4.19,0-7.4-1.55-10.32-5a.67.67,0,0,1,0-1L12.26,37M268,23.57A7.07,7.07,0,0,1,275.38,30H260.5c.88-4.16,3.83-6.43,7.49-6.43m11.9,6.71A11.54,11.54,0,0,0,268,19.45c-7.07,0-12.15,5.82-12.15,13,0,7.53,5.3,13,12.51,13a13.29,13.29,0,0,0,10.44-5,.52.52,0,0,0,0-.75l-2.06-2.27a.47.47,0,0,0-.75,0c-2.52,2.66-4.44,3.94-7.53,3.94A8.22,8.22,0,0,1,260.28,34h19.15a.54.54,0,0,0,.57-.54,30.33,30.33,0,0,0-.11-3.16M243.76,44.35V33.44c0-5.57,3.16-9.59,7.64-9.59a8.76,8.76,0,0,1,2.52.29.63.63,0,0,0,.86-.61V20.09a.54.54,0,0,0-.5-.5,9.83,9.83,0,0,0-1.81-.14,9.24,9.24,0,0,0-8.71,4.93V20.55a.55.55,0,0,0-.53-.54H240a.55.55,0,0,0-.53.54v23.8a.55.55,0,0,0,.53.53h3.27a.55.55,0,0,0,.53-.53M223.37,23.57c5,0,8.28,3.94,8.28,8.88s-3.23,8.88-8.28,8.88-8.28-3.94-8.28-8.88,3.24-8.88,8.28-8.88m0,21.88c7.53,0,12.61-5.82,12.61-13s-5.08-13-12.61-13-12.61,5.82-12.61,13,5.08,13,12.61,13M198.15,32.38h-6.79V24.14h6.79c3.91,0,5.47,1.13,5.47,4.12s-1.56,4.12-5.47,4.12M198.64,20H187.56a.55.55,0,0,0-.53.54v23.8a.55.55,0,0,0,.53.53h3.27a.55.55,0,0,0,.53-.53V36.5h7.28c5.08,0,9.31-2.45,9.31-8.24S203.72,20,198.64,20M171,41.33c-2.27,0-4.37-1-4.37-3.37s1.78-3.59,5.65-3.59h6c0,4.26-3.06,7-7.25,7m1.67-21.88a11.5,11.5,0,0,0-8.92,4,.55.55,0,0,0,0,.74L166,26.48a.44.44,0,0,0,.74,0,8,8,0,0,1,6-2.91c3.9,0,5.54,2.06,5.54,5.4v1.49h-6.61c-5.15,0-9.34,2.66-9.34,7.64s4.19,7.35,8.17,7.35c3.52,0,6.39-1.42,7.78-4.19v3.09a.55.55,0,0,0,.53.53h3.27a.55.55,0,0,0,.53-.53V28.75c0-6.46-3.55-9.3-9.91-9.3M159.18,30.89h-12a.5.5,0,0,0-.53.53v3a.51.51,0,0,0,.53.54h8.07a7.9,7.9,0,0,1-8.17,6.32c-4.87,0-8.1-3.87-8.1-8.88s3.23-8.88,8.1-8.88a8.31,8.31,0,0,1,6.64,2.84.45.45,0,0,0,.75,0L156.58,24a.51.51,0,0,0,0-.75,12.73,12.73,0,0,0-9.41-3.83c-7.64,0-12.51,5.82-12.51,13s4.91,13,12.44,13c7.35,0,12.61-5.54,12.61-13V31.42a.5.5,0,0,0-.53-.53M122.3,19.45c-4.51,0-7,2.09-8.28,4.29V20.55a.55.55,0,0,0-.53-.54h-3.27a.55.55,0,0,0-.53.54v23.8a.55.55,0,0,0,.53.53h3.27a.55.55,0,0,0,.53-.53V31.77c0-4.61,2.6-8.2,7.14-8.2,4,0,5.72,2.59,5.72,6.85V44.35a.55.55,0,0,0,.53.53h3.27a.55.55,0,0,0,.54-.53V30.07c0-6.89-3.24-10.59-8.92-10.62M101,20.55v23.8a.55.55,0,0,0,.53.53h3.27a.55.55,0,0,0,.53-.53V20.55a.55.55,0,0,0-.53-.54h-3.27a.55.55,0,0,0-.53.54M79.88,37.24,77.61,39.7a.51.51,0,0,0,0,.74,12.92,12.92,0,0,0,10.41,5c5.58,0,9.42-2.91,9.42-7.28,0-3.55-1.89-5.76-6-6.93L86.88,30c-2.95-.85-4.16-1.85-4.16-3.41,0-1.92,2-3.2,5-3.2a7.54,7.54,0,0,1,5.72,2.81.46.46,0,0,0,.74,0l2.21-2.34a.5.5,0,0,0,0-.75,11.18,11.18,0,0,0-8.67-3.62c-5,0-9.17,2.7-9.17,7.21,0,2.95,2.06,5.65,6.33,6.85l4.26,1.21c3.12.89,3.94,2.06,3.94,3.48,0,2.1-2.06,3.13-4.83,3.13a8.93,8.93,0,0,1-7.6-4,.44.44,0,0,0-.75,0"/><path class="a" d="M144.33,58.41v6h-2.6V59a1.8,1.8,0,0,0-1.79-2,1.88,1.88,0,0,0-2,1.83l0,0v5.68h-2.69l0-9.51h2.69v1.19a3.41,3.41,0,0,1,2.87-1.41A3.47,3.47,0,0,1,144.33,58.41Zm-10.85,1.27a5.19,5.19,0,1,1-5.16-5A5.14,5.14,0,0,1,133.48,59.68Zm-2.56,0a2.62,2.62,0,1,0-5.24,0,2.62,2.62,0,1,0,5.24,0Zm27.6-.69-3.9-7.14h-2.71l0,12.63h2.7l0-7.87,3.9,7.14,3.91-7.12V64.5h2.72l0-12.63h-2.72Zm41,1.7H192.7A2.29,2.29,0,0,0,195,62.41a3.45,3.45,0,0,0,2.19-.84l1.71,1.75A5.81,5.81,0,0,1,195,64.78a4.89,4.89,0,0,1-5-5,4.79,4.79,0,0,1,4.9-4.94C197.82,54.84,199.56,57.1,199.55,60.69ZM197,58.75a2,2,0,0,0-2-1.54,2.27,2.27,0,0,0-2.21,1.54Zm-20.9.09v5.68h-2.59v-1a3.75,3.75,0,0,1-2.8,1.17c-2,0-3.58-1.22-3.58-3s1.75-3.16,4-3.15a7,7,0,0,1,2.43.48v-.18c0-1-.63-1.9-2.19-1.9a5.48,5.48,0,0,0-2.46.67l-.9-1.78a8.71,8.71,0,0,1,4-1A3.86,3.86,0,0,1,176.08,58.84Zm-2.6,1.8a6,6,0,0,0-2-.35,1.56,1.56,0,0,0-1.75,1.33c0,.78.68,1.26,1.6,1.26a2.07,2.07,0,0,0,2.19-1.36Zm12-9h2.69l0,12.86h-2.68V63.18a3.92,3.92,0,0,1-3.2,1.58c-2.54,0-4.38-2.07-4.37-5s1.85-5,4.39-5a3.87,3.87,0,0,1,3.19,1.59Zm0,8.09A2.48,2.48,0,0,0,183,57.07a2.73,2.73,0,1,0,2.43,2.71ZM120,50.7a1.46,1.46,0,1,0,1.43,1.44A1.46,1.46,0,0,0,120,50.7Zm-22.08,8v5.68H95.32v-1a3.75,3.75,0,0,1-2.8,1.17c-2,0-3.58-1.22-3.58-3s1.76-3.16,4-3.15a6.91,6.91,0,0,1,2.43.48v-.18c0-1-.62-1.9-2.19-1.9a5.48,5.48,0,0,0-2.46.67l-.9-1.78a8.75,8.75,0,0,1,4-1A3.86,3.86,0,0,1,97.92,58.69Zm-2.59,1.8a6.06,6.06,0,0,0-2-.35c-1,0-1.75.56-1.75,1.33s.67,1.26,1.59,1.26a2.07,2.07,0,0,0,2.19-1.36Zm8.82-2c-1.28-.35-1.67-.5-1.67-1,0-.33.46-.57,1.13-.57a5.38,5.38,0,0,1,2.66.85l1.09-1.91a6.91,6.91,0,0,0-3.75-1.18c-2.24,0-3.73,1.28-3.72,3.08s1.52,2.41,3.47,2.89c1,.26,1.67.45,1.67,1,0,.42-.51.71-1.23.71a5.37,5.37,0,0,1-3.18-1.07l-1.16,1.85a7.08,7.08,0,0,0,4.28,1.45c2.33,0,3.86-1.19,3.87-3.07C107.61,59.47,105.79,58.91,104.15,58.48Zm9.23,0c-1.28-.35-1.67-.5-1.67-1,0-.33.46-.57,1.13-.57a5.42,5.42,0,0,1,2.66.85l1.09-1.91a6.91,6.91,0,0,0-3.75-1.18c-2.24,0-3.73,1.28-3.72,3.08s1.52,2.41,3.47,2.89c1,.26,1.67.45,1.67,1s-.52.72-1.23.72a5.44,5.44,0,0,1-3.18-1.07l-1.16,1.85A7,7,0,0,0,113,64.62c2.33,0,3.86-1.18,3.87-3.06C116.84,59.48,115,58.93,113.38,58.5Zm5.23,5.91h2.69l0-9.51h-2.69ZM87.89,56c0,2.5-2,4.26-4.77,4.26h-3v4.1h-2.7l0-12.63h5.68C85.87,51.72,87.89,53.49,87.89,56Zm-2.8,0c0-1.08-.91-1.78-2.25-1.78H80.15v3.57h2.69C84.17,57.77,85.09,57.07,85.09,56Zm149.18,2.75c-1.29-.35-1.67-.5-1.67-1,0-.33.46-.57,1.12-.57a5.45,5.45,0,0,1,2.67.85l1.08-1.91a6.85,6.85,0,0,0-3.74-1.18c-2.25,0-3.74,1.28-3.72,3.08s1.52,2.41,3.46,2.89c1,.26,1.68.45,1.68,1,0,.42-.52.71-1.24.71a5.39,5.39,0,0,1-3.18-1.07l-1.16,1.85a7,7,0,0,0,4.28,1.44c2.34,0,3.87-1.18,3.87-3.06C237.72,59.71,235.9,59.16,234.27,58.73ZM264,59.93c0,2.92-1.85,5-4.39,5a3.9,3.9,0,0,1-3.18-1.56v1.34h-2.68l0-12.85h2.69V56.5A3.86,3.86,0,0,1,259.63,55C262.17,55,264,57,264,59.93Zm-2.61,0a2.52,2.52,0,0,0-2.54-2.71,2.43,2.43,0,0,0-2.41,2.33v.73a2.42,2.42,0,0,0,2.4,2.36A2.53,2.53,0,0,0,261.39,59.93Zm-12.66,4.73h2.68l0-9.51h-2.68ZM250.11,51a1.45,1.45,0,1,0,0,2.9,1.45,1.45,0,0,0,0-2.9ZM265.88,64.7h2.69l0-12.85h-2.68Zm11.7-3,1.71,1.75a5.79,5.79,0,0,1-3.89,1.46,4.87,4.87,0,0,1-5-5,4.78,4.78,0,0,1,4.9-4.93c3,0,4.72,2.27,4.71,5.85h-6.86a2.31,2.31,0,0,0,2.26,1.73A3.44,3.44,0,0,0,277.58,61.72Zm-4.41-2.82h4.25a2,2,0,0,0-2-1.55A2.29,2.29,0,0,0,273.17,58.9Zm-29.67-.15c-1.29-.35-1.67-.5-1.67-1,0-.33.46-.57,1.12-.57a5.28,5.28,0,0,1,2.66.85l1.09-1.91A6.85,6.85,0,0,0,243,54.93c-2.25,0-3.74,1.28-3.73,3.08s1.53,2.41,3.47,2.89c1,.26,1.68.44,1.68,1,0,.43-.52.72-1.24.72A5.46,5.46,0,0,1,240,61.58l-1.16,1.85a7,7,0,0,0,4.28,1.44c2.34,0,3.87-1.18,3.87-3.06C247,59.73,245.13,59.18,243.5,58.75Zm-15,1.11a5.19,5.19,0,1,1-5.16-5A5.14,5.14,0,0,1,228.48,59.86Zm-2.56,0a2.62,2.62,0,1,0-2.62,2.71A2.69,2.69,0,0,0,225.92,59.86ZM217,56.24c0,2.5-2,4.26-4.77,4.25h-3v4.1h-2.7l0-12.63h5.69C215,52,217,53.74,217,56.24Zm-2.8,0c0-1.08-.91-1.78-2.25-1.79h-2.69V58H212C213.31,58,214.23,57.32,214.23,56.23Z"/></svg>